<svg width="24" height="25" viewBox="0 0 24 25" fill="none" xmlns="http://www.w3.org/2000/svg">
<path d="M11 21.25C5.62 21.25 1.25 16.88 1.25 11.5C1.25 6.12 5.62 1.75 11 1.75C16.38 1.75 20.75 6.12 20.75 11.5C20.75 16.88 16.38 21.25 11 21.25ZM11 3.25C6.45 3.25 2.75 6.95 2.75 11.5C2.75 16.05 6.45 19.75 11 19.75C15.55 19.75 19.25 16.05 19.25 11.5C19.25 6.95 15.55 3.25 11 3.25Z" fill="#464646"/>
<path d="M20.1601 23.29C20.0801 23.29 20.0001 23.28 19.9301 23.27C19.4601 23.21 18.6101 22.89 18.1301 21.46C17.8801 20.71 17.9701 19.96 18.3801 19.39C18.7901 18.82 19.4801 18.5 20.2701 18.5C21.2901 18.5 22.0901 18.89 22.4501 19.58C22.8101 20.27 22.7101 21.15 22.1401 22C21.4301 23.07 20.6601 23.29 20.1601 23.29ZM19.5601 20.99C19.7301 21.51 19.9701 21.77 20.1301 21.79C20.2901 21.81 20.5901 21.62 20.9001 21.17C21.1901 20.74 21.2101 20.43 21.1401 20.29C21.0701 20.15 20.7901 20 20.2701 20C19.9601 20 19.7301 20.1 19.6001 20.27C19.4801 20.44 19.4601 20.7 19.5601 20.99Z" fill="#464646"/>
</svg>
